<svg xmlns="http://www.w3.org/2000/svg" width="462" height="215" viewBox="0 0 462 215"><rect width="100%" height="100%" fill="#DDDDDD"/><path fill="#999999" d="M102.21 112.93h13.42V98.5q0-2.04.28-4.51l-13.7 18.94Zm19.98 0h5.55v4.36q0 .61-.4 1.05-.39.44-1.12.44h-4.03v10.77h-6.56v-10.77h-18.6q-.76 0-1.34-.47-.58-.47-.74-1.17l-.79-3.82 20.89-27.9h7.14v27.51Zm36.11-27.48-13.08 16.01-1.53 1.89q1.28-.64 2.76-.99 1.48-.35 3.19-.35 2.5 0 4.87.82 2.36.83 4.16 2.49 1.8 1.66 2.9 4.13 1.09 2.47 1.09 5.77 0 3.08-1.12 5.77-1.13 2.7-3.18 4.72-2.04 2.01-4.92 3.17-2.88 1.16-6.36 1.16-3.54 0-6.35-1.13-2.8-1.13-4.78-3.16-1.99-2.03-3.04-4.88t-1.05-6.33q0-3.11 1.26-6.39 1.27-3.27 3.92-6.81l10.53-14.12q.55-.74 1.6-1.25 1.05-.52 2.42-.52h6.71Zm-11.37 38.43q1.8 0 3.31-.61 1.5-.61 2.59-1.71 1.08-1.1 1.69-2.58.61-1.48.61-3.22 0-1.89-.58-3.4t-1.65-2.56q-1.06-1.05-2.56-1.6-1.49-.55-3.29-.55t-3.27.61q-1.46.61-2.5 1.69-1.03 1.09-1.61 2.57-.58 1.48-.58 3.18 0 1.83.5 3.34.5 1.51 1.5 2.58.99 1.07 2.45 1.66 1.46.6 3.39.6Zm36.35-1.34h11.32q1.22 0 1.93.68.72.69.72 1.82v4.51h-30.26v-2.5q0-.76.33-1.6.32-.84 1.02-1.51l13.39-13.42q1.67-1.71 3-3.27 1.33-1.55 2.21-3.08.89-1.52 1.36-3.09.47-1.57.47-3.31 0-1.59-.46-2.79-.45-1.21-1.29-2.03-.84-.82-2.01-1.24-1.18-.41-2.64-.41-1.35 0-2.49.38-1.14.39-2.03 1.07-.88.69-1.49 1.6-.61.92-.92 2.02-.52 1.4-1.34 1.86-.82.45-2.38.21l-3.96-.7q.45-3.17 1.77-5.57 1.31-2.39 3.28-3.99 1.96-1.6 4.51-2.41t5.47-.81q3.05 0 5.59.9 2.53.9 4.33 2.55 1.8 1.64 2.8 3.96 1.01 2.32 1.01 5.16 0 2.43-.72 4.51-.71 2.07-1.92 3.96-1.2 1.89-2.82 3.66-1.62 1.77-3.39 3.6l-9.94 10.16q1.43-.43 2.85-.66 1.42-.22 2.7-.22Zm63.69-3.09-4 3.94-10.34-10.34-10.43 10.4-4-3.93 10.44-10.47-9.95-9.94 3.97-3.96 9.94 9.94 9.88-9.88 4.03 3.96-9.91 9.91 10.37 10.37Zm36.72 3.09H295q1.22 0 1.94.68.72.69.72 1.82v4.51H267.4v-2.5q0-.76.32-1.6.32-.84 1.02-1.51l13.39-13.42q1.68-1.71 3.01-3.27 1.32-1.55 2.21-3.08.88-1.52 1.36-3.09.47-1.57.47-3.31 0-1.59-.46-2.79-.46-1.21-1.3-2.03-.83-.82-2.01-1.24-1.17-.41-2.64-.41-1.34 0-2.48.38-1.15.39-2.03 1.07-.89.69-1.5 1.6-.61.92-.91 2.02-.52 1.4-1.34 1.86-.83.45-2.38.21l-3.97-.7q.46-3.17 1.77-5.57 1.31-2.39 3.28-3.99 1.97-1.6 4.52-2.41 2.54-.81 5.47-.81 3.05 0 5.58.9 2.53.9 4.33 2.55 1.8 1.64 2.81 3.96 1 2.32 1 5.16 0 2.43-.71 4.51-.72 2.07-1.92 3.96-1.21 1.89-2.82 3.66-1.62 1.77-3.39 3.6l-9.94 10.16q1.43-.43 2.85-.66 1.42-.22 2.7-.22Zm40.41 1.37h7.93v5.64h-24.4v-5.64h8.94V98.2q0-1.53.09-3.15l-6.35 5.31q-.54.43-1.08.54-.53.1-1 .01-.48-.09-.84-.32-.37-.23-.55-.5l-2.38-3.27 13.45-11.43h6.19v38.52Zm25.68-31.63-1.55 9.18q1.46-.31 2.8-.44 1.34-.14 2.59-.14 3.48 0 6.13 1.04 2.66 1.03 4.46 2.86 1.8 1.83 2.71 4.29.92 2.45.92 5.29 0 3.51-1.24 6.41-1.23 2.89-3.43 4.95t-5.2 3.19q-3 1.13-6.54 1.13-2.08 0-3.94-.43-1.86-.43-3.49-1.14-1.63-.72-3.02-1.65-1.39-.93-2.48-1.97l2.31-3.2q.74-1.04 1.93-1.04.76 0 1.55.49t1.82 1.07q1.02.58 2.41 1.07 1.38.48 3.34.48 2.07 0 3.66-.67 1.58-.67 2.63-1.87 1.06-1.21 1.59-2.87.53-1.66.53-3.61 0-3.6-2.09-5.63t-6.17-2.03q-3.14 0-6.44 1.16l-4.69-1.34 3.66-21.41h21.77v3.2q0 1.62-1 2.62-1.01 1.01-3.42 1.01h-12.11Z"/></svg>