<?xml version="1.0" ?><!DOCTYPE svg  PUBLIC '-//W3C//DTD SVG 1.1//EN'  'http://www.w3.org/Graphics/SVG/1.1/DTD/svg11.dtd'><svg enable-background="new 0 0 50 50" height="50px" id="Layer_1" version="1.1" viewBox="0 0 50 50" width="50px" xml:space="preserve" xmlns="http://www.w3.org/2000/svg" xmlns:xlink="http://www.w3.org/1999/xlink"><g><g><polygon fill="#404041" points="2.111,20.786 0.563,20.786 0.563,29.176 5.962,29.176 5.962,27.75 2.111,27.75   "/><rect fill="#404041" height="6.129" width="1.471" x="7.056" y="23.046"/><path d="M14.714,23.594c-0.135-0.2-0.339-0.363-0.606-0.492c-0.271-0.129-0.567-0.195-0.891-0.195    c-0.735,0-1.347,0.348-1.831,1.041v-0.901h-1.364v6.129h1.469V26.4c0-0.685,0.039-1.156,0.113-1.409    c0.074-0.255,0.213-0.457,0.416-0.612c0.202-0.154,0.431-0.23,0.686-0.23c0.197,0,0.367,0.056,0.507,0.161    c0.143,0.108,0.247,0.261,0.31,0.453c0.062,0.196,0.094,0.624,0.094,1.284v3.129h1.469v-3.81c0-0.471-0.025-0.834-0.081-1.09    C14.947,24.022,14.852,23.796,14.714,23.594z" fill="#404041"/><polygon fill="#404041" points="21.524,23.046 19.712,23.046 17.993,25.206 17.993,20.715 16.522,20.715 16.522,29.176     17.993,29.176 17.993,27.215 18.677,26.424 20.074,29.176 21.659,29.176 19.625,25.286   "/><path d="M26.607,23.813c-0.477-0.604-1.129-0.906-1.955-0.906c-0.736,0-1.345,0.289-1.825,0.863    c-0.482,0.576-0.724,1.371-0.724,2.388c0,0.85,0.185,1.555,0.551,2.111c0.464,0.697,1.177,1.045,2.144,1.045    c0.609,0,1.12-0.154,1.524-0.467c0.406-0.309,0.704-0.76,0.893-1.352l-1.466-0.27c-0.078,0.307-0.197,0.529-0.354,0.67    c-0.157,0.137-0.35,0.205-0.581,0.205c-0.338,0-0.621-0.133-0.848-0.4c-0.227-0.266-0.346-0.641-0.355-1.121h3.685    C27.313,25.336,27.086,24.417,26.607,23.813z M23.638,25.588c-0.005-0.444,0.1-0.796,0.309-1.053    c0.209-0.258,0.475-0.387,0.793-0.387c0.303,0,0.558,0.123,0.767,0.366c0.208,0.245,0.315,0.601,0.328,1.073H23.638z" fill="#404041"/><path d="M32.115,20.715v3.047c-0.453-0.568-0.988-0.855-1.608-0.855c-0.678,0-1.239,0.273-1.682,0.813    c-0.442,0.54-0.664,1.329-0.664,2.371c0,1.014,0.228,1.807,0.683,2.373s1.001,0.852,1.64,0.852c0.314,0,0.626-0.086,0.935-0.258    c0.309-0.17,0.576-0.432,0.803-0.781v0.9h1.366v-8.46H32.115z M31.767,27.557c-0.237,0.316-0.526,0.477-0.864,0.477    c-0.424,0-0.758-0.213-0.992-0.635c-0.164-0.293-0.248-0.766-0.248-1.419c0-0.608,0.119-1.066,0.354-1.37    c0.236-0.306,0.527-0.46,0.876-0.46c0.36,0,0.653,0.154,0.884,0.467c0.23,0.309,0.346,0.815,0.346,1.517    C32.121,26.764,32.003,27.24,31.767,27.557z" fill="#404041"/><ellipse cx="7.827" cy="21.43" fill="#404041" rx="0.674" ry="0.744"/></g><path d="M46.82,17.412H38.05c-1.444,0-2.615,1.269-2.615,2.834v9.508c0,1.564,1.171,2.834,2.615,2.834h8.771   c1.444,0,2.615-1.27,2.615-2.834v-9.508C49.436,18.68,48.265,17.412,46.82,17.412z M38.791,20.319c0.412,0,0.745,0.369,0.745,0.823   s-0.333,0.823-0.745,0.823s-0.746-0.369-0.746-0.823S38.379,20.319,38.791,20.319z M39.621,29.68h-1.625v-6.779h1.625V29.68z    M46.875,29.68H45.25v-3.461c0-0.73-0.035-1.203-0.104-1.42c-0.07-0.213-0.186-0.382-0.34-0.501   c-0.156-0.117-0.344-0.178-0.564-0.178c-0.281,0-0.533,0.084-0.757,0.256c-0.223,0.17-0.378,0.395-0.46,0.676   c-0.083,0.28-0.125,0.801-0.125,1.558v3.07h-1.625v-6.779h1.508v0.996c0.539-0.768,1.214-1.151,2.027-1.151   c0.357,0,0.688,0.072,0.982,0.216c0.298,0.143,0.522,0.322,0.676,0.545c0.15,0.223,0.258,0.473,0.317,0.754   c0.062,0.283,0.089,0.683,0.089,1.205V29.68z" fill="#404041"/></g></svg>